<?xml version="1.0" encoding="UTF-8" standalone="no"?>
<!-- Created with Inkscape (http://www.inkscape.org/) -->

<svg
   xmlns:dc="http://purl.org/dc/elements/1.1/"
   xmlns:cc="http://creativecommons.org/ns#"
   xmlns:rdf="http://www.w3.org/1999/02/22-rdf-syntax-ns#"
   xmlns:svg="http://www.w3.org/2000/svg"
   xmlns="http://www.w3.org/2000/svg"
   xmlns:sodipodi="http://sodipodi.sourceforge.net/DTD/sodipodi-0.dtd"
   xmlns:inkscape="http://www.inkscape.org/namespaces/inkscape"
   width="500pt"
   height="500pt"
   viewBox="0 0 624.99998 624.99998"
   id="svg2"
   version="1.1"
   inkscape:version="0.91 r13725"
   sodipodi:docname="GreenCycle.svg">
  <defs
     id="defs4" />
  <sodipodi:namedview
     id="base"
     pagecolor="#ffffff"
     bordercolor="#666666"
     borderopacity="1.0"
     inkscape:pageopacity="0.0"
     inkscape:pageshadow="2"
     inkscape:zoom="0.35"
     inkscape:cx="-174.233"
     inkscape:cy="420.69383"
     inkscape:document-units="px"
     inkscape:current-layer="layer1"
     showgrid="false"
     fit-margin-top="0"
     fit-margin-left="0"
     fit-margin-right="0"
     fit-margin-bottom="0"
     inkscape:window-width="1600"
     inkscape:window-height="837"
     inkscape:window-x="-8"
     inkscape:window-y="-8"
     inkscape:window-maximized="1"
     units="pt" />
  <metadata
     id="metadata7">
    <rdf:RDF>
      <cc:Work
         rdf:about="">
        <dc:format>image/svg+xml</dc:format>
        <dc:type
           rdf:resource="http://purl.org/dc/dcmitype/StillImage" />
        <dc:title></dc:title>
      </cc:Work>
    </rdf:RDF>
  </metadata>
  <g
     inkscape:label="Layer 1"
     inkscape:groupmode="layer"
     id="layer1"
     transform="translate(134.35713,-444.57654)">
    <g
       id="g3373"
       transform="matrix(0.82281925,0,0,0.82281925,-93.719326,290.89206)">
      <path
         style="fill:#b2cb90"
         d="M 314.40008,931.49234 C 247.12073,926.93892 178.91575,900.67435 124.14287,858.22755 94.95852,835.61084 66.55282,806.09088 46.29551,777.3265 c -2.61453,-3.7125 -5.23205,-6.75 -5.81671,-6.75 -0.69656,0 -0.82528,-1.58532 -0.3734,-4.59867 0.62074,-4.13939 0.35045,-5.11313 -2.70635,-9.75 C 30.60485,745.92173 18.4553,723.58777 12.5172,710.48871 -21.68506,635.0407 -31.72357,563.5148 -18.76805,487.5765 c 10.13082,-59.38147 35.30575,-115.74077 72.80987,-163 12.57853,-15.8503 39.66855,-42.85157 54.60105,-54.42216 67.65526,-52.42334 142.98531,-75.90723 229.5,-71.54587 24.68567,1.24445 40.51222,3.37152 59.39578,7.98271 80.25378,19.59726 152.36628,67.98928 204.19862,137.03012 35.33745,47.06959 60.50159,104.79966 70.88231,162.614 7.01493,39.06894 7.93021,85.495 2.43164,123.3412 -3.9741,27.35341 -13.91508,65.16491 -20.90124,79.5 -0.80412,1.65 -3.32242,7.5 -5.59621,13 -24.39943,59.01897 -65.98218,111.32761 -118.23384,148.73117 -61.80931,44.24527 -138.85864,65.90012 -215.91985,60.68467 z"
         id="path3361"
         inkscape:connector-curvature="0" />
      <path
         style="fill:#9cda64"
         d="M 315.64287,928.97196 C 278.49366,924.57834 265.1823,921.92811 237.24208,913.3627 168.3009,892.22798 101.49717,844.48894 55.88557,783.76236 49.86104,775.7414 46.3065,771.91608 43.97117,770.94031 c -3.61695,-1.51125 -4.04955,-2.4997 -1.99378,-4.55548 0.73399,-0.73398 74.75899,-49.18128 164.5,-107.66066 89.74102,-58.47938 163.16548,-106.72016 163.16548,-107.20172 0,-4.89488 -3.3589,-2.82235 -163.96716,101.17248 -88.25693,57.14691 -160.93193,103.75816 -161.5,103.58056 -2.19008,-0.68472 -8.91223,-12.00563 -18.82228,-31.69899 -14.36865,-28.55355 -21.3608,-46.93647 -28.71727,-75.5 -16.60192,-64.46146 -16.7677,-125.45891 -0.52454,-193 4.13269,-17.18424 5.0164,-22.5 3.74047,-22.5 -0.53162,0 -1.53174,1.36443 -2.2225,3.03206 -2.24037,5.40874 -2.16675,2.37113 0.12546,-5.1763 5.14802,-16.95059 17.22841,-44.4054 27.43717,-62.35576 36.08187,-63.44383 92.1472,-113.96419 158.52507,-142.84663 47.12176,-20.50369 102.98029,-30.27929 151.92558,-26.58794 9.075,0.68442 18.64776,1.15135 21.27281,1.03763 2.62504,-0.11373 10.27504,0.74064 17,1.89859 129.66603,22.32683 238.58902,117.78685 283.28242,248.26848 13.10547,38.26117 19.14975,72.86765 20.12578,115.22987 0.97688,42.39926 -3.13817,75.36494 -14.2595,114.23291 -4.79768,16.76741 -7.15412,23.07019 -10.10316,27.02297 -1.33601,1.79074 -2.19319,3.63761 -1.90485,4.10416 0.97488,1.57739 -10.13161,26.30389 -19.40605,43.2039 -29.8586,54.40875 -75.48591,100.92503 -129.42211,131.94366 -35.40822,20.36322 -77.41706,34.58735 -119.69698,40.52922 -10.85786,1.52592 -58.50659,2.84995 -66.88836,1.85864 z M 365.32992,536.3265 c -0.33448,-5.0875 -4.28013,-81.025 -8.76812,-168.75 -5.4527,-106.5818 -8.53471,-159.8971 -9.28946,-160.69689 -1.79721,-1.90448 -28.89094,-2.69529 -47.62947,-1.3902 -53.37864,3.71768 -102.75756,18.96442 -144.83051,44.71935 -17.35969,10.62672 -35.11577,24.11421 -28.64596,21.75941 1.08706,-0.39565 8.35255,-4.47021 16.14553,-9.05457 53.41255,-31.42091 101.24363,-46.75701 157.33094,-50.44509 17.62952,-1.15925 40.66612,-0.62589 42.27068,0.97867 0.47618,0.47618 1.50337,13.41258 2.28264,28.74755 0.77927,15.33498 2.55584,50.15677 3.94795,77.38177 1.39211,27.225 4.09364,80.325 6.00341,118 5.61866,110.84212 5.14556,104.22581 7.59728,106.25 3.81956,3.15352 4.22918,2.2966 3.58509,-7.5 z"
         id="path3359"
         inkscape:connector-curvature="0" />
      <path
         style="fill:#93a978"
         d="M 317.64287,925.97112 C 254.05246,920.30511 200.03351,901.34984 147.75908,866.35881 116.48958,845.42789 83.69643,814.07892 59.76746,782.24227 52.41825,772.46439 51.50334,771.80954 43.22574,770.4024 c -2.4654,-0.4191 -3.05013,-2.21579 -1.29299,-3.97292 0.75854,-0.75854 74.80363,-49.22593 164.54464,-107.70531 89.74102,-58.47938 163.16548,-106.72016 163.16548,-107.20172 0,-4.89488 -3.3589,-2.82235 -163.96716,101.17248 -88.25693,57.14691 -160.93193,103.75816 -161.5,103.58056 -2.19008,-0.68472 -8.91223,-12.00563 -18.82228,-31.69899 -14.36865,-28.55355 -21.3608,-46.93647 -28.71727,-75.5 -16.60192,-64.46146 -16.7677,-125.45891 -0.52454,-193 4.13269,-17.18424 5.0164,-22.5 3.74047,-22.5 -0.53162,0 -1.53174,1.36443 -2.2225,3.03206 -2.24037,5.40874 -2.16675,2.37113 0.12546,-5.1763 5.14802,-16.95059 17.22841,-44.4054 27.43717,-62.35576 36.08187,-63.44383 92.1472,-113.96419 158.52507,-142.84663 47.12176,-20.50369 102.98029,-30.27929 151.92558,-26.58794 9.075,0.68442 18.64776,1.15135 21.27281,1.03763 2.62504,-0.11373 10.27504,0.74064 17,1.89859 129.66603,22.32683 238.58902,117.78685 283.28242,248.26848 13.10547,38.26117 19.14975,72.86765 20.12578,115.22987 0.76807,33.33627 -1.50735,59.39687 -7.72715,88.5 -4.23184,19.80124 -13.42646,49.86039 -15.49422,50.65386 -0.71775,0.27543 -2.12802,-0.32152 -3.13394,-1.32654 -1.00591,-1.00503 -29.2782,-17.55194 -62.82732,-36.77093 -33.54911,-19.21898 -93.78027,-53.75648 -133.84703,-76.75 -48.03995,-27.56917 -73.795,-41.80639 -75.62755,-41.80639 -3.84087,0 -5.56846,2.22042 -3.27027,4.20317 0.96056,0.82871 62.99153,36.43215 137.8466,79.11875 74.85507,42.68659 136.6085,78.22454 137.22984,78.9732 1.16467,1.40335 -0.76177,6.66172 -9.07422,24.76882 -21.19962,46.1794 -59.50959,94.0826 -97.25575,121.60965 -50.84226,37.07761 -103.14152,58.51987 -163.05089,66.84953 -10.49985,1.45988 -53.75103,2.73561 -63.44911,1.8715 z m 326,-210.27218 c 0,-1.41036 -1.17503,-2.13456 -29.5,-18.18162 -38.39417,-21.7516 -50.52113,-28.63834 -149.26868,-84.76775 -48.54778,-27.59519 -88.93528,-50.17307 -89.75,-50.17307 -2.03669,0 -1.86479,3.35093 0.26868,5.2375 0.9625,0.85111 27.4,16.05663 58.75,33.79005 31.35,17.73342 75.9,42.93177 99,55.99633 23.1,13.06457 55.95,31.66544 73,41.33527 22.26897,12.62974 31.91535,17.58986 34.25,17.61117 1.7875,0.0163 3.25,-0.36522 3.25,-0.84788 z M 365.32992,536.3265 c -0.33448,-5.0875 -4.28013,-81.025 -8.76812,-168.75 -5.4527,-106.5818 -8.53471,-159.8971 -9.28946,-160.69689 -1.79721,-1.90448 -28.89094,-2.69529 -47.62947,-1.3902 -53.37864,3.71768 -102.75756,18.96442 -144.83051,44.71935 -17.35969,10.62672 -35.11577,24.11421 -28.64596,21.75941 1.08706,-0.39565 8.35255,-4.47021 16.14553,-9.05457 53.41255,-31.42091 101.24363,-46.75701 157.33094,-50.44509 17.62952,-1.15925 40.66612,-0.62589 42.27068,0.97867 0.47618,0.47618 1.50337,13.41258 2.28264,28.74755 0.77927,15.33498 2.55584,50.15677 3.94795,77.38177 1.39211,27.225 4.09364,80.325 6.00341,118 5.61866,110.84212 5.14556,104.22581 7.59728,106.25 3.81956,3.15352 4.22918,2.2966 3.58509,-7.5 z"
         id="path3357"
         inkscape:connector-curvature="0" />
      <path
         style="fill:#729b50"
         d="M 318.8237,925.54534 C 218.17592,918.9694 122.81158,865.91994 59.75382,781.42945 c -6.31834,-8.46588 -7.65358,-9.7274 -10.90541,-10.30332 -5.77958,-1.02359 -7.2064,-1.59218 -7.19452,-2.86702 0.006,-0.65043 39.49356,-26.90052 87.75,-58.33353 48.25644,-31.433 122.38898,-79.7173 164.73898,-107.29843 42.35,-27.58114 77.15263,-50.5836 77.33917,-51.11659 0.18654,-0.53299 -0.67586,-1.79099 -1.91645,-2.79556 l -2.25562,-1.82648 -8.78235,-169.88199 c -7.65746,-148.12255 -8.98777,-170.03219 -10.3861,-171.05467 -2.64094,-1.9311 -29.0715,-2.74933 -48.30637,-1.49546 -68.10747,4.43977 -128.39344,26.98794 -183.19228,68.51761 -27.0731,20.51754 -49.04527,41.55582 -67.75349,64.87374 -5.63558,7.02419 -10.24651,12.53465 -10.24651,12.24547 0,-0.57279 7.07931,-10.8919 13.23846,-19.29696 11.64488,-15.89114 38.2244,-43.46076 54.76154,-56.80143 50.19646,-40.49396 111.52847,-66.02984 174.18277,-72.52184 13.72239,-1.42187 45.5463,-1.69318 67.31723,-0.57391 38.75608,1.99249 77.25613,12.46912 118,32.11017 99.04986,47.7481 172.87241,140.22856 199.9432,250.47684 7.65188,31.16298 10.80495,57.5044 10.84368,90.59041 0.0368,31.47196 -2.42613,55.22093 -8.73754,84.251 -3.65497,16.81145 -13.32678,47.249 -15.0138,47.249 -0.29455,0 -1.32377,-0.7875 -2.28716,-1.75 -0.96338,-0.9625 -29.20088,-17.47462 -62.75,-36.69361 -33.54911,-19.21898 -93.78027,-53.75648 -133.84703,-76.75 -48.03995,-27.56917 -73.795,-41.80639 -75.62755,-41.80639 -3.84087,0 -5.56846,2.22042 -3.27027,4.20317 0.96056,0.82871 63.00893,36.44208 137.88527,79.14081 74.87634,42.69874 136.40799,78.33558 136.73701,79.19299 0.75884,1.97749 -9.49702,25.27243 -18.03443,40.96303 -23.00204,42.27461 -53.10828,77.09786 -91.84138,106.23099 -48.66408,36.60273 -103.77166,58.87735 -162.5,65.6829 -16.74001,1.93986 -42.50352,2.62095 -58.81917,1.55495 z M 103.89214,744.31258 c 21.86211,-14.42985 49.31211,-32.5332 61,-40.22968 11.6879,-7.69648 57.70073,-38.01618 102.25073,-67.37712 44.55,-29.36093 86.47136,-56.94516 93.15858,-61.29829 l 12.15857,-7.91477 132.59553,75.04189 c 72.92754,41.27304 133.60618,75.035 134.84143,75.02658 3.10713,-0.0212 5.49434,-1.64098 4.23753,-2.8753 -0.5454,-0.53564 -61.25927,-35.2016 -134.91971,-77.03547 -116.63887,-66.24255 -134.131,-75.88474 -135.5,-74.69171 -1.34333,1.17065 -213.4426,140.5283 -288.57193,189.60322 -13.75,8.98158 -25.4275,16.70914 -25.95,17.17236 -0.54185,0.48037 0.31743,0.83623 2,0.82829 2.16869,-0.0102 13.47761,-6.96256 42.69927,-26.25 z m -65.43201,2.57169 C 12.95942,703.90817 -3.94103,655.15816 -10.87455,604.5765 c -8.8476,-64.54537 -0.18206,-131.0356 24.66906,-189.28448 5.13338,-12.0322 9.7793,-21.11791 10.45368,-20.44353 0.20687,0.20687 -2.53729,8.52291 -6.09812,18.4801 -12.44376,34.79656 -18.88032,60.62871 -23.10989,92.74791 -2.07997,15.79529 -2.91146,56.98941 -1.49366,74 4.58013,54.95161 20.34982,107.31027 46.38264,154 6.5271,11.70632 6.50612,11.68147 8.81777,10.44431 2.05084,-1.09758 118.77558,-76.22911 283.79298,-182.66738 19.03007,-12.27463 26.04959,-16.30563 28,-16.07916 1.43163,0.16622 2.60296,0.8982 2.60296,1.62661 0,0.72841 -11.25,8.62277 -25,17.54304 -159.18929,103.27347 -291.91,188.92704 -293.31148,189.29353 -1.30337,0.34084 -2.89766,-1.49915 -6.37126,-7.35318 z"
         id="path3355"
         inkscape:connector-curvature="0" />
      <path
         style="fill:#66784f"
         d="M 327.64287,924.90599 C 231.40618,920.18274 143.28031,877.03891 78.92505,803.14109 69.08774,791.8451 55.64287,774.50207 55.64287,773.10855 c 0,-0.43568 2.11932,-0.55328 4.70961,-0.26131 3.96553,0.44697 5.18996,1.13637 7.75,4.36355 17.12918,21.59301 36.72672,42.40156 53.54039,56.84887 103.5174,88.94834 244.49046,108.15938 362.25344,49.36591 53.75182,-26.83573 95.156,-63.91444 134.16999,-120.15332 13.69202,-19.73713 6.92864,-5.03062 -8.12265,17.66213 -4.69049,7.07184 -12.18087,17.42184 -16.64529,23 -9.69956,12.11934 -32.82493,35.59336 -44.65756,45.33085 -51.69692,42.54323 -114.45407,68.77569 -177.49793,74.19406 -14.2115,1.22142 -34.40587,1.89303 -43.5,1.4467 z M 45.85352,769.69486 c -1.80915,-0.3401 -3.33297,-1.06836 -3.38628,-1.61836 -0.0533,-0.55 10.6519,-8.01338 23.78935,-16.58528 13.13745,-8.57191 87.2956,-56.89506 164.79589,-107.38478 140.58157,-91.58577 140.91564,-91.79574 143.5,-90.19314 1.42471,0.88348 63.90289,36.60463 138.84039,79.38034 96.84181,55.27908 136.25,78.26438 136.25,79.46942 0,2.18627 -1.74852,3.2576 -3.2938,2.01814 -1.56248,-1.25325 -265.23254,-151.00915 -269.2608,-152.93125 l -3.05459,-1.45751 -160.11752,105.09203 C 107.84834,735.10135 53.01283,770.53206 51.47075,770.44486 c -1.28033,-0.0724 -3.80809,-0.4099 -5.61723,-0.75 z M 40.49599,749.32471 C 35.00391,740.50997 27.17581,725.65431 21.66077,713.58045 -0.6851,664.65947 -11.6111,617.92464 -13.05753,565.0765 c -0.62862,-22.96779 0.44174,-39.665 3.9424,-61.5 2.39044,-14.91011 3.53171,-15.43926 1.74504,-0.80909 -1.80713,14.79767 -2.42647,58.86783 -1.05523,75.08607 4.88936,57.82869 21.79645,113.05278 49.05296,160.22302 2.86027,4.95 5.34527,9.14896 5.52222,9.33102 0.67784,0.69744 -19.24931,13.45396 206.438,-132.15289 57.99474,-37.41651 106.48224,-68.22831 107.75,-68.47065 1.26775,-0.24235 2.30501,0.0136 2.30501,0.56873 0,1.1979 -316.38825,206.2246 -318.23279,206.222 -0.69697,-9.8e-4 -2.4583,-1.91348 -3.91409,-4.25 z m 610.14688,-48.67905 c -1.375,-1.00085 -61.9,-35.8911 -134.5,-77.53388 -72.6,-41.64278 -132.74727,-76.4614 -133.6606,-77.37471 -1.45889,-1.45885 -2.74305,-22.07001 -10.57141,-169.67318 -8.03176,-151.43834 -9.08975,-168.28574 -10.72485,-170.78121 -0.99773,-1.52273 -1.53294,-3.04971 -1.18936,-3.39329 1.04245,-1.04245 22.18181,2.68251 39.02949,6.87739 109.523,27.26996 201.99682,108.13583 247.48778,216.42141 15.32697,36.48395 24.86778,74.73815 28.76716,115.34283 2.10737,21.94433 1.3651,63.19655 -1.50327,83.54548 -3.54547,25.15242 -11.73422,59.46106 -17.82593,74.68572 -1.7304,4.32471 -1.88148,4.37831 -5.30901,1.88344 z M 672.29542,560.5765 c -0.5601,-24.7835 -2.18489,-39.87314 -6.7266,-62.47094 -14.66409,-72.96279 -49.46731,-138.05725 -101.89811,-190.58587 -52.06338,-52.16053 -112.6393,-84.4358 -183.88333,-97.97432 -12.18959,-2.31639 -14.78962,-1.863 -10.80159,1.88356 1.78128,1.67343 5.94223,2.95113 16.76325,5.14749 48.29901,9.80336 96.11133,31.49118 136.28355,61.81867 68.47197,51.69201 117.28362,126.76683 137.62962,211.68141 6.62644,27.65565 9.85424,52.78308 10.72618,83.5 0.57122,20.12337 0.79269,22.49419 1.5413,16.5 0.48083,-3.85 0.64541,-17.125 0.36573,-29.5 z M 370.09437,548.16469 c -1.71589,-1.25468 -2.45082,-13.10516 -10.64415,-171.63146 -4.84056,-93.65605 -9.03395,-170.51666 -9.31865,-170.80136 -2.40105,-2.40105 -44.50272,-2.82174 -64.9887,-0.64938 -52.35226,5.55149 -98.57879,21.53971 -146.69876,50.73822 -20.43834,12.40168 -36.98514,25.26859 -59.30124,46.11307 -9.66668,9.02922 -11.67634,10.5954 -7.83768,6.10814 16.65665,-19.47105 42.8288,-41.389 69.05492,-57.83023 47.13319,-29.54794 97.05112,-45.63005 154.28276,-49.70541 22.87229,-1.6287 57.28336,-0.0464 60.09295,2.76317 0.56054,0.56054 1.66948,13.0953 2.46936,27.91226 1.30941,24.2554 6.26939,118.67474 12.96973,246.89479 1.35083,25.85 2.74753,52.22152 3.10376,58.60337 0.67696,12.12735 0.17421,13.94062 -3.1843,11.48482 z"
         id="path3353"
         inkscape:connector-curvature="0" />
      <path
         style="fill:#58832f"
         d="m 314.64287,923.90887 c -13.09412,-1.30025 -30.58253,-3.93869 -42.82227,-6.46051 -80.23698,-16.53161 -155.19648,-64.46882 -207.49086,-132.69208 -4.29222,-5.59964 -7.57249,-10.55583 -7.28949,-11.01374 0.28301,-0.45792 1.91371,-0.62723 3.62379,-0.37624 2.56965,0.37714 4.78094,2.56085 12.74224,12.58327 12.11174,15.24737 41.28463,44.57076 55.73659,56.02412 36.14968,28.64908 78.58879,50.89124 120.11811,62.9534 98.78987,28.69345 202.87609,9.96939 286.01911,-51.45196 16.67184,-12.31621 46.8837,-40.67685 58.8676,-55.26051 2.19735,-2.67404 5.26318,-6.27404 6.81297,-8 l 2.81778,-3.13812 -1.79628,3 c -3.41407,5.70186 -7.51167,11.03003 -17.35337,22.56477 -53.72174,62.96338 -132.18606,103.16641 -216.48592,110.92161 -10.1254,0.93149 -45.31219,1.15905 -53.5,0.34599 z M 43.1623,768.60793 c -0.32924,-0.53271 3.13171,-3.38041 7.69098,-6.32822 4.55927,-2.94781 71.73959,-46.69208 149.28959,-97.20949 77.55,-50.5174 148.15324,-96.49525 156.89608,-102.17298 10.95303,-7.11307 16.25753,-10.02318 17.05846,-9.35847 0.63931,0.53058 62.33607,35.8587 137.10392,78.50693 74.76785,42.64824 136.55526,78.43414 137.30535,79.52423 2.71163,3.94073 -1.35943,3.19213 -9.94687,-1.82908 -34.67766,-20.27653 -261.80269,-148.61102 -263.62763,-148.95988 -1.631,-0.31178 -5.16429,1.45744 -12.04854,6.03308 -5.35742,3.56083 -16.49077,10.89053 -24.74077,16.28823 -18.74501,12.26424 -45.69727,29.93988 -64,41.97203 -7.7,5.06196 -21.875,14.37099 -31.5,20.68674 -9.625,6.31575 -26.05,17.10542 -36.5,23.97705 -10.45,6.87162 -23.5,15.43287 -29,19.02499 -5.5,3.59212 -20.8,13.64402 -34,22.33757 -13.2,8.69354 -35.475,23.29617 -49.5,32.45028 -14.025,9.15411 -28.70077,18.75472 -32.61283,21.3347 -6.1232,4.03821 -7.81936,4.69086 -12.19098,4.69086 -2.79299,0 -5.34753,-0.43585 -5.67676,-0.96857 z m 607.48057,-67.96227 c -1.375,-1.00085 -61.9,-35.8911 -134.5,-77.53388 -72.6,-41.64278 -132.74727,-76.4614 -133.6606,-77.37471 -1.45889,-1.45885 -2.74305,-22.07001 -10.57141,-169.67318 -7.98898,-150.63178 -9.09635,-168.2958 -10.70441,-170.75 l -1.7936,-2.73739 3.44012,0 c 5.38779,0 25.01456,3.73652 39.2899,7.47997 84.27417,22.09937 156.99982,74.30999 207.93665,149.28022 62.1813,91.52016 82.06232,207.88816 53.52899,313.31707 -4.07135,15.04338 -8.93805,29.93234 -9.76259,29.86718 -0.38668,-0.0305 -1.82805,-0.87443 -3.20305,-1.87528 z M 672.29542,560.5765 c -0.5601,-24.7835 -2.18489,-39.87314 -6.7266,-62.47094 -14.66409,-72.96279 -49.46731,-138.05725 -101.89811,-190.58587 -52.06338,-52.16053 -112.6393,-84.4358 -183.88333,-97.97432 -12.18959,-2.31639 -14.78962,-1.863 -10.80159,1.88356 1.78128,1.67343 5.94223,2.95113 16.76325,5.14749 48.29901,9.80336 96.11133,31.49118 136.28355,61.81867 68.47197,51.69201 117.28362,126.76683 137.62962,211.68141 6.62644,27.65565 9.85424,52.78308 10.72618,83.5 0.57122,20.12337 0.79269,22.49419 1.5413,16.5 0.48083,-3.85 0.64541,-17.125 0.36573,-29.5 z m -300.07138,-19.25 c -0.32421,-3.9875 -1.26103,-20.525 -2.08183,-36.75 -2.28199,-45.10915 -8.09264,-156.85962 -12.0544,-231.8304 -1.9569,-37.03171 -3.37312,-67.85671 -3.14715,-68.5 0.71468,-2.03451 1.66493,11.63118 3.74314,53.8304 1.11054,22.55 3.58761,70.475 5.50461,106.5 1.917,36.025 4.60082,86.875 5.96406,113 1.36324,26.125 2.77378,52.7875 3.13455,59.25 0.71352,12.78168 -0.10715,16.25591 -1.06298,4.5 z M 249.45537,207.89339 c 0.72187,-0.28887 1.58438,-0.25335 1.91667,0.0789 0.33229,0.33229 -0.25834,0.56864 -1.3125,0.52522 -1.16495,-0.048 -1.4019,-0.28494 -0.60417,-0.60416 z m 3.9375,-0.97917 c 0.6875,-0.27741 1.8125,-0.27741 2.5,0 0.6875,0.27741 0.125,0.50439 -1.25,0.50439 -1.375,0 -1.9375,-0.22698 -1.25,-0.50439 z m 5,-1 c 0.6875,-0.27741 1.8125,-0.27741 2.5,0 0.6875,0.27741 0.125,0.50439 -1.25,0.50439 -1.375,0 -1.9375,-0.22698 -1.25,-0.50439 z m 8.0625,-1.02083 c 0.72187,-0.28887 1.58438,-0.25335 1.91667,0.0789 0.33229,0.33229 -0.25834,0.56864 -1.3125,0.52522 -1.16495,-0.048 -1.4019,-0.28494 -0.60417,-0.60416 z m 7,-1 c 0.72187,-0.28887 1.58438,-0.25335 1.91667,0.0789 0.33229,0.33229 -0.25834,0.56864 -1.3125,0.52522 -1.16495,-0.048 -1.4019,-0.28494 -0.60417,-0.60416 z m 7.45653,-1.00988 c 0.97297,-0.25354 2.32297,-0.23687 3,0.0371 0.67703,0.27393 -0.11903,0.48137 -1.76903,0.46099 -1.65,-0.0204 -2.20394,-0.2445 -1.23097,-0.49804 z m 66.54347,0.01 c 0.72187,-0.28887 1.58438,-0.25335 1.91667,0.0789 0.33229,0.33229 -0.25834,0.56864 -1.3125,0.52522 -1.16495,-0.048 -1.4019,-0.28494 -0.60417,-0.60416 z m -54.54875,-1.03447 c 1.52006,-0.22986 3.77006,-0.22371 5,0.0136 1.22994,0.23736 -0.0138,0.42542 -2.76375,0.41792 -2.75,-0.008 -3.75631,-0.20172 -2.23625,-0.43157 z m 41.48625,0.0119 c 1.2375,-0.23836 3.2625,-0.23836 4.5,0 1.2375,0.23835 0.225,0.43337 -2.25,0.43337 -2.475,0 -3.4875,-0.19502 -2.25,-0.43337 z"
         id="path3351"
         inkscape:connector-curvature="0" />
      <path
         style="fill:#4d6c2f"
         d="M 314.14287,923.52261 C 223.61234,915.15675 141.7571,873.35152 81.24465,804.5765 71.06193,793.00339 57.64287,775.89072 57.64287,774.4783 c 0,-1.53507 3.67451,-0.99371 5.75721,0.8482 1.08833,0.9625 5.74904,6.475 10.35714,12.25 25.79584,32.32805 58.85061,61.30948 93.38565,81.87773 43.17633,25.71479 80.43385,38.9752 131.5,46.80245 14.46001,2.21639 67.2342,2.56741 81.5,0.54209 71.61993,-10.1679 130.38015,-37.6944 184.57154,-86.46339 13.99523,-12.59486 12.72274,-9.68606 -1.97431,4.51313 -49.28199,47.61256 -113.97408,78.40313 -183.35373,87.26828 -14.79507,1.89047 -51.45158,2.68032 -65.2435,1.40582 z M 43.74634,768.70831 c -1.05428,-0.70281 0.66123,-2.26138 7,-6.35961 8.30669,-5.37056 275.47491,-179.37253 304.37606,-198.23478 8.23875,-5.37699 15.43875,-9.94712 16,-10.15583 1.45663,-0.54167 276.77618,156.82951 277.32948,158.52005 0.32534,0.99402 -0.13549,1.24625 -1.58457,0.8673 -1.12382,-0.29388 -62.42482,-34.83991 -136.22444,-76.76894 -73.79962,-41.92903 -135.02781,-76.45602 -136.06265,-76.72663 -1.28475,-0.33597 -17.51126,9.75604 -51.15943,31.81838 -27.10286,17.77073 -99.00292,64.93524 -159.77792,104.81003 -92.88627,60.94317 -111.1376,72.55233 -114.5,72.83031 -2.2,0.18188 -4.62844,-0.0882 -5.39653,-0.60028 z M 517.23969,622.58165 C 444.69294,580.84603 384.78751,546.10871 384.11653,545.3876 c -0.87165,-0.93675 -3.69223,-48.13696 -9.87863,-165.3111 -4.76225,-90.2 -8.64433,-165.2926 -8.62684,-166.87244 0.0275,-2.48348 0.24233,-2.69774 1.58641,-1.58225 0.85502,0.70961 2.00434,2.13056 2.55403,3.15766 0.9797,1.83058 4.12002,56.67 13.38816,233.79703 2.54691,48.675 4.80771,89.40127 5.024,90.50283 0.28066,1.42942 9.78187,7.42398 33.18623,20.93804 76.16954,43.98155 110.9125,64.01715 164.79298,95.03297 31.35,18.04635 58.46297,33.8956 60.25105,35.22055 1.78808,1.32495 3.93714,3.73573 4.77568,5.3573 1.41244,2.73136 1.39397,2.94419 -0.25105,2.89236 -0.97662,-0.0308 -61.13211,-34.20327 -133.67886,-75.9389 z m 143.48213,55.41152 c 0.048,-1.16495 0.28494,-1.4019 0.60416,-0.60417 0.28887,0.72187 0.25335,1.58438 -0.0789,1.91667 -0.33229,0.33229 -0.56864,-0.25834 -0.52522,-1.3125 z m 1,-4 c 0.048,-1.16495 0.28494,-1.4019 0.60416,-0.60417 0.28887,0.72187 0.25335,1.58438 -0.0789,1.91667 -0.33229,0.33229 -0.56864,-0.25834 -0.52522,-1.3125 z m 1.01435,-2.91667 c -0.0262,-0.55 0.83066,-4.15 1.90412,-8 1.47621,-5.29447 1.80645,-5.91563 1.35538,-2.54945 -0.56991,4.25317 -3.16011,12.6364 -3.2595,10.54945 z m 3.9067,-16.26796 c 0,-0.60571 0.66825,-4.27804 1.485,-8.16073 4.58112,-21.7779 5.93182,-37.73397 5.97395,-70.57131 0.0267,-20.77874 -0.42181,-35.68198 -1.27891,-42.5 C 663.31407,457.93549 637.64749,395.73753 591.6694,336.91679 581.52681,323.94117 549.91291,292.05274 536.64287,281.41242 487.94488,242.3649 433.68195,217.64595 374.76105,207.66874 c -6.82074,-1.15497 -12.01597,-2.56146 -12.96428,-3.50977 -1.44329,-1.44329 -1.31516,-1.58247 1.45692,-1.58247 5.02889,0 25.04964,3.85081 38.88918,7.47997 84.27417,22.09937 156.99982,74.30999 207.93665,149.28022 56.52947,83.20163 78.17875,187.15303 59.40506,285.23981 -1.82199,9.5193 -2.84171,13.19098 -2.84171,10.23204 z M 249.45537,207.89339 c 0.72187,-0.28887 1.58438,-0.25335 1.91667,0.0789 0.33229,0.33229 -0.25834,0.56864 -1.3125,0.52522 -1.16495,-0.048 -1.4019,-0.28494 -0.60417,-0.60416 z m 3.9375,-0.97917 c 0.6875,-0.27741 1.8125,-0.27741 2.5,0 0.6875,0.27741 0.125,0.50439 -1.25,0.50439 -1.375,0 -1.9375,-0.22698 -1.25,-0.50439 z m 5,-1 c 0.6875,-0.27741 1.8125,-0.27741 2.5,0 0.6875,0.27741 0.125,0.50439 -1.25,0.50439 -1.375,0 -1.9375,-0.22698 -1.25,-0.50439 z m 8.0625,-1.02083 c 0.72187,-0.28887 1.58438,-0.25335 1.91667,0.0789 0.33229,0.33229 -0.25834,0.56864 -1.3125,0.52522 -1.16495,-0.048 -1.4019,-0.28494 -0.60417,-0.60416 z m 7,-1 c 0.72187,-0.28887 1.58438,-0.25335 1.91667,0.0789 0.33229,0.33229 -0.25834,0.56864 -1.3125,0.52522 -1.16495,-0.048 -1.4019,-0.28494 -0.60417,-0.60416 z m 7.45653,-1.00988 c 0.97297,-0.25354 2.32297,-0.23687 3,0.0371 0.67703,0.27393 -0.11903,0.48137 -1.76903,0.46099 -1.65,-0.0204 -2.20394,-0.2445 -1.23097,-0.49804 z m 66.54347,0.01 c 0.72187,-0.28887 1.58438,-0.25335 1.91667,0.0789 0.33229,0.33229 -0.25834,0.56864 -1.3125,0.52522 -1.16495,-0.048 -1.4019,-0.28494 -0.60417,-0.60416 z m -54.54875,-1.03447 c 1.52006,-0.22986 3.77006,-0.22371 5,0.0136 1.22994,0.23736 -0.0138,0.42542 -2.76375,0.41792 -2.75,-0.008 -3.75631,-0.20172 -2.23625,-0.43157 z m 41.48625,0.0119 c 1.2375,-0.23836 3.2625,-0.23836 4.5,0 1.2375,0.23835 0.225,0.43337 -2.25,0.43337 -2.475,0 -3.4875,-0.19502 -2.25,-0.43337 z"
         id="path3349"
         inkscape:connector-curvature="0" />
    </g>
  </g>
</svg>
